# xmcd CD database file
#
# Track frame offsets:
#	150
#	51360
#	92894
#	113521
#	146020
#	179339
#	209227
#
# Disc length: 3472 seconds
#
# Revision: 0
# Processed by: cddbd v1.5.2PL0 Copyright (c) Steve Scherf et al.
# Submitted via: CDex 1.70beta2
#
DISCID=690d8e07
DTITLE=In Transit - Shifting Moods
DYEAR=2007
DGENRE=Jazz
TTITLE0=From Above - Very Spring
TTITLE1=Color Deep
TTITLE2=Spices and Devices, Part 1
TTITLE3=Spices and Devices Part 2
TTITLE4=Dream Talk
TTITLE5=Last Famous Words
TTITLE6=Open End
EXTD=YEAR: 2007
EXTT0=
EXTT1=
EXTT2=
EXTT3=
EXTT4=
EXTT5=
EXTT6=
PLAYORDER=
